<?xml version="1.0" standalone="no"?>
<!DOCTYPE svg PUBLIC "-//W3C//DTD SVG 20010904//EN"
 "http://www.w3.org/TR/2001/REC-SVG-20010904/DTD/svg10.dtd">
<svg version="1.0" xmlns="http://www.w3.org/2000/svg"
 width="270.000000pt" height="270.000000pt" viewBox="0 0 270.000000 270.000000"
 preserveAspectRatio="xMidYMid meet">
<g transform="translate(0.000000,270.000000) scale(0.100000,-0.100000)"
fill="#000000" stroke="none">
<path d="M0 1355 l0 -1225 225 0 225 0 0 1225 0 1225 -225 0 -225 0 0 -1225z"/>
<path d="M1000 1355 l0 -1225 850 0 850 0 0 220 0 220 -620 0 -620 0 0 285 0
285 530 0 530 0 0 220 0 220 -530 0 -530 0 0 280 0 280 600 0 600 0 0 220 0
220 -830 0 -830 0 0 -1225z"/>
</g>
</svg>
